<?xml version="1.0" encoding="iso-8859-1"?>
<!-- Generator: Adobe Illustrator 19.0.0, SVG Export Plug-In . SVG Version: 6.00 Build 0)  -->
<svg version="1.1" id="Capa_1" xmlns="http://www.w3.org/2000/svg" xmlns:xlink="http://www.w3.org/1999/xlink" x="0px" y="0px"
	 viewBox="0 0 512 512" style="enable-background:new 0 0 512 512;" xml:space="preserve">
<rect x="7.515" y="71.64" style="fill:#8E9AA9;" width="256.501" height="80.157"/>
<polygon style="fill:#7C899B;" points="23.546,135.765 23.546,71.64 7.515,71.64 7.515,151.796 264.016,151.796 264.016,135.765 "/>
<rect x="151.796" y="95.687" style="fill:#B8E3A8;" width="88.172" height="32.063"/>
<g>
	<polygon style="fill:#7EC97D;" points="151.796,95.687 151.796,127.75 175.175,127.75 207.238,95.687 	"/>
	<polygon style="fill:#7EC97D;" points="225.941,95.687 193.879,127.75 239.969,127.75 239.969,95.687 	"/>
</g>
<rect x="7.515" y="215.922" style="fill:#8E9AA9;" width="256.501" height="80.157"/>
<polygon style="fill:#7C899B;" points="23.546,280.047 23.546,215.922 7.515,215.922 7.515,296.078 264.016,296.078 
	264.016,280.047 "/>
<rect x="151.796" y="239.969" style="fill:#B8E3A8;" width="88.172" height="32.063"/>
<g>
	<polygon style="fill:#7EC97D;" points="151.796,239.969 151.796,272.031 175.175,272.031 207.238,239.969 	"/>
	<polygon style="fill:#7EC97D;" points="225.941,239.969 193.879,272.031 239.969,272.031 239.969,239.969 	"/>
</g>
<rect x="7.515" y="360.204" style="fill:#8E9AA9;" width="256.501" height="80.157"/>
<polygon style="fill:#7C899B;" points="23.546,424.329 23.546,360.204 7.515,360.204 7.515,440.36 264.016,440.36 264.016,424.329 
	"/>
<rect x="151.796" y="384.25" style="fill:#B8E3A8;" width="88.172" height="32.063"/>
<g>
	<polygon style="fill:#7EC97D;" points="151.796,384.25 151.796,416.313 175.175,416.313 207.238,384.25 	"/>
	<polygon style="fill:#7EC97D;" points="225.941,384.25 193.879,416.313 239.969,416.313 239.969,384.25 	"/>
</g>
<circle style="fill:#F7C14D;" cx="424.329" cy="256" r="80.157"/>
<circle style="fill:#FFDB66;" cx="424.329" cy="256" r="64.125"/>
<circle style="fill:#69788D;" cx="424.329" cy="223.937" r="24.047"/>
<path style="fill:#56677E;" d="M440.36,239.969c-13.281,0-24.047-10.766-24.047-24.047c0-6.119,2.289-11.701,6.053-15.945
	c-12.362,1-22.084,11.341-22.084,23.961c0,13.281,10.766,24.047,24.047,24.047c7.162,0,13.589-3.134,17.994-8.102
	C441.675,239.935,441.021,239.969,440.36,239.969z"/>
<path style="fill:#69788D;" d="M424.329,336.157c20.409,0,39.024-7.64,53.175-20.199C470.016,281.098,449.038,256,424.329,256
	s-45.687,25.099-53.175,59.957C385.305,328.517,403.92,336.157,424.329,336.157z"/>
<path style="fill:#56677E;" d="M436.796,258.202c-4.011-1.431-8.181-2.202-12.467-2.202c-24.709,0-45.687,25.099-53.175,59.957
	c6.449,5.723,13.833,10.41,21.884,13.833C400.203,293.415,416.663,265.932,436.796,258.202z"/>
<path d="M239.969,88.172h-88.172c-4.15,0-7.515,3.365-7.515,7.515v32.063c0,4.15,3.365,7.515,7.515,7.515h88.172
	c4.15,0,7.515-3.365,7.515-7.515V95.687C247.483,91.537,244.119,88.172,239.969,88.172z M232.454,120.235h-73.143v-17.033h73.143
	V120.235z"/>
<path d="M31.562,88.172c-4.15,0-7.515,3.365-7.515,7.515v32.063c0,4.15,3.365,7.515,7.515,7.515s7.515-3.365,7.515-7.515V95.687
	C39.076,91.537,35.712,88.172,31.562,88.172z"/>
<path d="M55.609,88.172c-4.15,0-7.515,3.365-7.515,7.515v32.063c0,4.15,3.365,7.515,7.515,7.515s7.515-3.365,7.515-7.515V95.687
	C63.123,91.537,59.759,88.172,55.609,88.172z"/>
<path d="M79.656,88.172c-4.15,0-7.515,3.365-7.515,7.515v32.063c0,4.15,3.365,7.515,7.515,7.515c4.15,0,7.515-3.365,7.515-7.515
	V95.687C87.17,91.537,83.806,88.172,79.656,88.172z"/>
<path d="M103.703,88.172c-4.15,0-7.515,3.365-7.515,7.515v32.063c0,4.15,3.365,7.515,7.515,7.515c4.15,0,7.515-3.365,7.515-7.515
	V95.687C111.217,91.537,107.853,88.172,103.703,88.172z"/>
<path d="M127.75,88.172c-4.15,0-7.515,3.365-7.515,7.515v1.002c0,4.15,3.365,7.515,7.515,7.515c4.15,0,7.515-3.365,7.515-7.515
	v-1.002C135.264,91.537,131.9,88.172,127.75,88.172z"/>
<path d="M127.75,119.233c-4.15,0-7.515,3.365-7.515,7.515v1.002c0,4.15,3.365,7.515,7.515,7.515c4.15,0,7.515-3.365,7.515-7.515
	v-1.002C135.264,122.597,131.9,119.233,127.75,119.233z"/>
<path d="M239.969,232.454h-88.172c-4.15,0-7.515,3.365-7.515,7.515v32.063c0,4.15,3.365,7.515,7.515,7.515h88.172
	c4.15,0,7.515-3.365,7.515-7.515v-32.063C247.483,235.819,244.119,232.454,239.969,232.454z M232.454,264.517h-73.143v-17.033
	h73.143V264.517z"/>
<path d="M31.562,232.454c-4.15,0-7.515,3.365-7.515,7.515v32.063c0,4.15,3.365,7.515,7.515,7.515s7.515-3.365,7.515-7.515v-32.063
	C39.076,235.819,35.712,232.454,31.562,232.454z"/>
<path d="M55.609,232.454c-4.15,0-7.515,3.365-7.515,7.515v32.063c0,4.15,3.365,7.515,7.515,7.515s7.515-3.365,7.515-7.515v-32.063
	C63.123,235.819,59.759,232.454,55.609,232.454z"/>
<path d="M79.656,232.454c-4.15,0-7.515,3.365-7.515,7.515v32.063c0,4.15,3.365,7.515,7.515,7.515c4.15,0,7.515-3.365,7.515-7.515
	v-32.063C87.17,235.819,83.806,232.454,79.656,232.454z"/>
<path d="M103.703,232.454c-4.15,0-7.515,3.365-7.515,7.515v32.063c0,4.15,3.365,7.515,7.515,7.515c4.15,0,7.515-3.365,7.515-7.515
	v-32.063C111.217,235.819,107.853,232.454,103.703,232.454z"/>
<path d="M127.75,232.454c-4.15,0-7.515,3.365-7.515,7.515v1.002c0,4.15,3.365,7.515,7.515,7.515c4.15,0,7.515-3.365,7.515-7.515
	v-1.002C135.264,235.819,131.9,232.454,127.75,232.454z"/>
<path d="M127.75,263.515c-4.15,0-7.515,3.365-7.515,7.515v1.002c0,4.15,3.365,7.515,7.515,7.515c4.15,0,7.515-3.365,7.515-7.515
	v-1.002C135.264,266.879,131.9,263.515,127.75,263.515z"/>
<path d="M239.969,376.736h-88.172c-4.15,0-7.515,3.365-7.515,7.515v32.063c0,4.15,3.365,7.515,7.515,7.515h88.172
	c4.15,0,7.515-3.365,7.515-7.515V384.25C247.483,380.1,244.119,376.736,239.969,376.736z M232.454,408.798h-73.143v-17.033h73.143
	V408.798z"/>
<path d="M31.562,376.736c-4.15,0-7.515,3.365-7.515,7.515v32.063c0,4.15,3.365,7.515,7.515,7.515s7.515-3.365,7.515-7.515V384.25
	C39.076,380.1,35.712,376.736,31.562,376.736z"/>
<path d="M55.609,376.736c-4.15,0-7.515,3.365-7.515,7.515v32.063c0,4.15,3.365,7.515,7.515,7.515s7.515-3.365,7.515-7.515V384.25
	C63.123,380.1,59.759,376.736,55.609,376.736z"/>
<path d="M79.656,376.736c-4.15,0-7.515,3.365-7.515,7.515v32.063c0,4.15,3.365,7.515,7.515,7.515c4.15,0,7.515-3.365,7.515-7.515
	V384.25C87.17,380.1,83.806,376.736,79.656,376.736z"/>
<path d="M103.703,376.736c-4.15,0-7.515,3.365-7.515,7.515v32.063c0,4.15,3.365,7.515,7.515,7.515c4.15,0,7.515-3.365,7.515-7.515
	V384.25C111.217,380.1,107.853,376.736,103.703,376.736z"/>
<path d="M127.75,376.736c-4.15,0-7.515,3.365-7.515,7.515v1.002c0,4.15,3.365,7.515,7.515,7.515c4.15,0,7.515-3.365,7.515-7.515
	v-1.002C135.264,380.1,131.9,376.736,127.75,376.736z"/>
<path d="M127.75,407.796c-4.15,0-7.515,3.365-7.515,7.515v1.002c0,4.15,3.365,7.515,7.515,7.515c4.15,0,7.515-3.365,7.515-7.515
	v-1.002C135.264,411.161,131.9,407.796,127.75,407.796z"/>
<path d="M490.798,198.83c-2.707-3.145-7.453-3.5-10.598-0.793c-3.145,2.708-3.5,7.453-0.793,10.598
	c11.326,13.157,17.563,29.978,17.563,47.365c0,17.014-5.896,32.668-15.73,45.063c-8.313-25.205-23.337-43.105-41.263-49.734
	c9.497-5.448,15.912-15.681,15.912-27.392c0-17.403-14.159-31.562-31.562-31.562s-31.562,14.159-31.562,31.562
	c0,11.714,6.42,21.95,15.921,27.397c-17.911,6.636-32.949,24.545-41.267,49.735c-9.837-12.395-15.735-28.052-15.735-45.069
	c0-40.055,32.587-72.642,72.642-72.642c11.069,0,21.692,2.423,31.576,7.202c3.736,1.806,8.23,0.242,10.037-3.495
	c1.807-3.736,0.242-8.23-3.494-10.037c-11.94-5.773-24.765-8.7-38.118-8.7c-45.81,0-83.521,35.319-87.346,80.157h-25.375V111.718
	c0-4.15-3.365-7.515-7.515-7.515H271.53V71.64c0-4.15-3.365-7.515-7.515-7.515H7.515C3.365,64.125,0,67.49,0,71.64v80.157
	c0,4.15,3.365,7.515,7.515,7.515h256.501c4.15,0,7.515-3.365,7.515-7.515v-32.564h25.049v129.252H271.53v-32.564
	c0-4.15-3.365-7.515-7.515-7.515H7.515c-4.15,0-7.515,3.365-7.515,7.515v80.157c0,4.15,3.365,7.515,7.515,7.515h256.501
	c4.15,0,7.515-3.365,7.515-7.515v-32.564h25.049v129.252H271.53v-32.564c0-4.15-3.365-7.515-7.515-7.515H7.515
	c-4.15,0-7.515,3.365-7.515,7.515v80.157c0,4.15,3.365,7.515,7.515,7.515h256.501c4.15,0,7.515-3.365,7.515-7.515v-32.564h32.564
	c4.15,0,7.515-3.365,7.515-7.515V263.515h25.375c3.824,44.838,41.535,80.157,87.346,80.157C472.671,343.671,512,304.342,512,256
	C512,235.016,504.47,214.712,490.798,198.83z M256.501,144.282H15.029V79.155h241.472V144.282z M256.501,288.564H15.029v-65.127
	h241.472V288.564z M256.501,432.845H15.029v-65.127h241.472V432.845z M424.329,207.405c9.116,0,16.532,7.416,16.532,16.532
	s-7.417,16.532-16.532,16.532s-16.532-7.416-16.532-16.532S415.213,207.405,424.329,207.405z M379.545,313.132
	c7.613-29.716,25.527-49.617,44.783-49.617c19.293,0,37.167,19.881,44.782,49.618c-12.35,9.701-27.896,15.509-44.782,15.509
	C407.442,328.642,391.895,322.834,379.545,313.132z"/>
<g>
</g>
<g>
</g>
<g>
</g>
<g>
</g>
<g>
</g>
<g>
</g>
<g>
</g>
<g>
</g>
<g>
</g>
<g>
</g>
<g>
</g>
<g>
</g>
<g>
</g>
<g>
</g>
<g>
</g>
</svg>
