<?xml version="1.0" encoding="iso-8859-1"?>
<!-- Generator: Adobe Illustrator 19.0.0, SVG Export Plug-In . SVG Version: 6.00 Build 0)  -->
<svg version="1.1" id="Capa_1" xmlns="http://www.w3.org/2000/svg" xmlns:xlink="http://www.w3.org/1999/xlink" x="0px" y="0px"
	 viewBox="0 0 512 512" style="enable-background:new 0 0 512 512;" xml:space="preserve">
<circle style="fill:#3E454C;" cx="256" cy="288.32" r="223.68"/>
<circle style="fill:#CC8B6A;" cx="256" cy="288.32" r="185.31"/>
<path style="fill:#FFE92F;" d="M232.503,0h142.989c5.801,0,9.529,6.159,6.838,11.299l-88.151,168.379
	c-3.082,5.887,1.725,12.81,8.318,11.98l121.485-15.298c5.769-0.726,9.352,6.091,5.481,10.43L214.204,428.112
	c-2.966,3.325-8.321,0.014-6.672-4.125l64.867-162.805c1.885-4.731-2.514-9.553-7.398-8.109l-99.608,29.454
	c-6.82,2.017-13.299-4.031-11.756-10.973l56.328-253.475C212.313,7.516,221.682,0,232.503,0z"/>
<g>
	<path style="fill:#FFC600;" d="M321.142,11.298L232.99,179.677c-3.082,5.887,1.725,12.81,8.318,11.98l52.086-6.559
		c-0.354-1.738-0.155-3.627,0.784-5.421l88.151-168.379C385.02,6.159,381.292,0,375.491,0h-61.188
		C320.104,0,323.832,6.159,321.142,11.298z"/>
	<path style="fill:#FFC600;" d="M423.981,176.359l-54.118,6.815c-0.109,1.256-0.607,2.515-1.589,3.616L248.57,320.989
		l-41.038,102.998c-1.649,4.139,3.706,7.45,6.672,4.125L429.462,186.79C433.333,182.45,429.75,175.633,423.981,176.359z"/>
</g>
<g>
</g>
<g>
</g>
<g>
</g>
<g>
</g>
<g>
</g>
<g>
</g>
<g>
</g>
<g>
</g>
<g>
</g>
<g>
</g>
<g>
</g>
<g>
</g>
<g>
</g>
<g>
</g>
<g>
</g>
</svg>
