<svg viewBox="-95 0 512 512.00042" xmlns="http://www.w3.org/2000/svg"><path d="m283.953125 150.640625c-81.382813-.007813-174.136719-60.023437-174.136719-60.023437s-25.539062 60.007812-72.207031 60.023437c-.300781 3.515625-.457031 7.074219-.457031 10.667969 0 68.242187 55.351562 123.5625 123.628906 123.5625s123.628906-55.320313 123.628906-123.5625c0-3.59375-.15625-7.152344-.457031-10.667969zm0 0" fill="#ffd4b8"/><path d="m127.597656 281.367188v40.890624h66.371094v-40.890624" fill="#ffd4b8"/><path d="m311.566406 502h-301.566406v-124.90625c0-30.285156 24.550781-54.835938 54.832031-54.835938h191.898438c30.285156 0 54.835937 24.550782 54.835937 54.835938zm0 0" fill="#5396a8"/><path d="m160.78125 428.074219-65.339844-105.816407h130.683594zm0 0" fill="#fff"/><path d="m259.320312 477.140625c-.648437 0-1.308593-.058594-1.949218-.191406-.640625-.128907-1.269532-.320313-1.867188-.570313-.613281-.25-1.191406-.558594-1.730468-.917968-.550782-.371094-1.0625-.78125-1.519532-1.242188-.460937-.46875-.882812-.976562-1.242187-1.519531-.359375-.546875-.667969-1.128907-.917969-1.730469-.25-.597656-.441406-1.226562-.570312-1.867188-.132813-.652343-.199219-1.300781-.199219-1.949218 0-.660156.066406-1.3125.199219-1.960938.128906-.640625.320312-1.269531.570312-1.871094.25-.601562.558594-1.179687.917969-1.730468.359375-.539063.78125-1.058594 1.242187-1.519532.457032-.460937.96875-.878906 1.519532-1.238281.539062-.363281 1.117187-.671875 1.730468-.921875.597656-.25 1.226563-.441406 1.867188-.570312 1.292968-.257813 2.621094-.257813 3.910156 0 .640625.128906 1.261719.320312 1.871094.570312.601562.25 1.179687.558594 1.71875.921875.550781.359375 1.0625.777344 1.53125 1.238281.460937.460938.871094.980469 1.238281 1.519532.359375.550781.671875 1.128906.921875 1.730468.25.601563.4375 1.230469.570312 1.871094.128907.648438.1875 1.300782.1875 1.960938 0 .648437-.058593 1.296875-.1875 1.949218-.132812.640626-.320312 1.269532-.570312 1.867188-.25.601562-.5625 1.183594-.921875 1.730469-.367187.542969-.777344 1.050781-1.238281 1.519531-.472656.460938-.980469.871094-1.53125 1.242188-.539063.359374-1.117188.667968-1.71875.917968-.609375.25-1.230469.441406-1.871094.570313-.648438.132812-1.308594.191406-1.960938.191406zm0 0"/><path d="m222.019531 477.144531h-159.78125c-5.523437 0-10-4.476562-10-10 0-5.523437 4.476563-10 10-10h159.78125c5.523438 0 10 4.476563 10 10 0 5.523438-4.476562 10-10 10zm0 0"/><path d="m37.589844 150.640625c46.683594 0 72.226562-60.023437 72.226562-60.023437s92.769532 60.023437 174.15625 60.023437v-36.636719c0-68.148437-55.386718-104.238281-123.625-104.003906-68.085937.238281-122.757812 37.289062-122.757812 105.339844zm0 0" fill="#b06d5d"/><path d="m256.730469 312.257812h-52.765625v-24.546874c52.554687-17.988282 90.445312-67.855469 90.445312-126.402344 0-3.582032-.152344-7.203125-.4375-10.773438v-36.53125c0-30.546875-10.519531-57.171875-30.414062-77-24.085938-24.007812-60.746094-37.160156-103.246094-37.003906-36.5625.128906-69.636719 10.582031-93.132812 29.441406-25.898438 20.78125-39.585938 50.484375-39.585938 85.898438v35.199218c-.285156 3.570313-.4375 7.1875-.4375 10.769532 0 58.546875 37.886719 108.414062 90.441406 126.402344v24.546874h-52.765625c-35.75 0-64.832031 29.085938-64.832031 64.832032v124.910156c0 5.523438 4.476562 10 10 10h301.566406c5.523438 0 10-4.476562 10-10v-124.90625c0-35.75-29.085937-64.835938-64.835937-64.835938zm-209.140625-196.917968c0-70.082032 60.761718-95.160156 112.792968-95.339844h.632813c36.863281 0 68.246094 11.058594 88.425781 31.167969 16.277344 16.222656 24.53125 37.363281 24.53125 62.835937v26.328125c-74.992187-4.535156-157.863281-57.554687-158.722656-58.113281-1.636719-1.058594-3.527344-1.601562-5.433594-1.601562-.980468 0-1.96875.144531-2.929687.4375-2.820313.863281-5.117188 2.929687-6.273438 5.644531-.207031.492187-19.535156 45.015625-53.023437 52.789062zm-.433594 45.96875c0-.46875.023438-.9375.027344-1.40625 34.835937-5.242188 57.230468-37.972656 66.695312-55.078125 24.933594 14.714843 94.34375 52.136719 160.511719 55.5625 0 .308593.019531.613281.019531.917969 0 62.621093-50.972656 113.566406-113.625 113.566406-62.65625 0-113.628906-50.945313-113.628906-113.5625zm90.441406 131.542968c7.535156 1.324219 15.28125 2.019532 23.1875 2.019532 7.902344 0 15.648438-.695313 23.183594-2.019532v19.40625h-46.371094zm70.597656 39.40625-47.414062 76.78125-47.410156-76.78125zm93.371094 159.742188h-281.566406v-114.90625c0-24.722656 20.109375-44.835938 44.832031-44.835938h25.03125l62.410157 101.070313c1.820312 2.949219 5.042968 4.746094 8.507812 4.746094 3.46875 0 6.6875-1.796875 8.511719-4.746094l62.410156-101.070313h25.027344c24.722656 0 44.835937 20.113282 44.835937 44.835938zm0 0"/><path d="m252.046875 427.75h-.421875c-14.085938 0-25.5-11.417969-25.5-25.5v-25.898438h51.421875v25.898438c0 14.082031-11.417969 25.5-25.5 25.5zm0 0" fill="#ffd4b8"/><path d="m252.046875 437.75h-.421875c-19.578125 0-35.5-15.925781-35.5-35.5v-25.898438c0-5.519531 4.476562-10 10-10h51.421875c5.519531 0 10 4.480469 10 10v25.898438c0 19.574219-15.925781 35.5-35.5 35.5zm-15.921875-51.398438v15.898438c0 8.546875 6.953125 15.5 15.5 15.5h.421875c8.546875 0 15.5-6.953125 15.5-15.5v-15.898438zm0 0"/></svg>