<svg id="Layer_1" data-name="Layer 1" xmlns="http://www.w3.org/2000/svg" viewBox="0 0 147.41 170.21"><defs><style>.cls-1{fill:#fff;}</style></defs><title>logo_2.1</title><polygon class="cls-1" points="86.55 22.24 86.55 7.41 73.7 0 60.86 7.41 60.86 22.24 73.7 29.66 86.55 22.24"/><polygon class="cls-1" points="117.26 39.98 117.26 25.15 104.42 17.73 91.58 25.15 91.58 39.98 104.42 47.39 117.26 39.98"/><polygon class="cls-1" points="147.41 57.38 147.41 42.55 134.57 35.14 121.72 42.55 121.72 57.38 134.57 64.8 147.41 57.38"/><polygon class="cls-1" points="147.41 92.52 147.41 77.69 134.57 70.28 121.72 77.69 121.72 92.52 134.57 99.93 147.41 92.52"/><polygon class="cls-1" points="114.21 74.02 114.21 62.71 104.42 57.06 94.63 62.71 94.63 74.02 104.42 79.67 114.21 74.02"/><polygon class="cls-1" points="114.21 109.16 114.21 97.85 104.42 92.2 94.63 97.85 94.63 109.16 104.42 114.81 114.21 109.16"/><polygon class="cls-1" points="47.58 72.8 47.58 63.93 39.9 59.49 32.21 63.93 32.21 72.8 39.9 77.24 47.58 72.8"/><polygon class="cls-1" points="47.58 107.94 47.58 99.07 39.9 94.63 32.21 99.07 32.21 107.94 39.9 112.38 47.58 107.94"/><polygon class="cls-1" points="12.84 88.81 12.84 81.4 6.42 77.69 0 81.4 0 88.81 6.42 92.52 12.84 88.81"/><polygon class="cls-1" points="147.41 127.66 147.41 112.83 134.57 105.42 121.72 112.83 121.72 127.66 134.57 135.07 147.41 127.66"/><polygon class="cls-1" points="84.62 56.02 84.62 43.91 74.13 37.85 63.64 43.91 63.64 56.02 74.13 62.08 84.62 56.02"/><polygon class="cls-1" points="84.62 126.3 84.62 114.19 74.13 108.13 63.64 114.19 63.64 126.3 74.13 132.36 84.62 126.3"/><polygon class="cls-1" points="82.94 90.19 82.94 80.02 74.13 74.94 65.33 80.02 65.33 90.19 74.13 95.27 82.94 90.19"/><polygon class="cls-1" points="117.26 145.06 117.26 130.24 104.42 122.82 91.58 130.24 91.58 145.06 104.42 152.48 117.26 145.06"/><polygon class="cls-1" points="50.43 37.76 50.43 25.6 39.9 19.52 29.36 25.6 29.36 37.76 39.9 43.84 50.43 37.76"/><polygon class="cls-1" points="11.91 48.03 11.91 41.16 5.96 37.72 0 41.16 0 48.03 5.96 51.47 11.91 48.03"/><polygon class="cls-1" points="86.55 162.8 86.55 147.97 73.7 140.56 60.86 147.97 60.86 162.8 73.7 170.21 86.55 162.8"/><polygon class="cls-1" points="50.43 144.61 50.43 132.45 39.9 126.37 29.36 132.45 29.36 144.61 39.9 150.69 50.43 144.61"/><polygon class="cls-1" points="16.75 128.91 16.75 119.23 8.38 114.4 0 119.23 0 128.91 8.38 133.74 16.75 128.91"/></svg>